HIERARCHY
ROOT Hips
{
	OFFSET -0.001795 -0.223333 0.028219
	CHANNELS 6 Xposition Yposition Zposition Zrotation Yrotation Xrotation 
	JOINT LeftUpLeg
	{
		OFFSET 0.069520 -0.091406 -0.006815
		CHANNELS 3 Zrotation Yrotation Xrotation
		JOINT LeftLeg
		{
			OFFSET 0.034277 -0.375199 -0.004496
			CHANNELS 3 Zrotation Yrotation Xrotation
			JOINT LeftFoot
			{
				OFFSET -0.013596 -0.397961 -0.043693
				CHANNELS 3 Zrotation Yrotation Xrotation
				JOINT LeftToe
				{
					OFFSET 0.026358 -0.055791 0.119288
					CHANNELS 3 Zrotation Yrotation Xrotation
					End Site
					{
						OFFSET 0.000000 0.000000 0.000000
					}
				}
			}
		}
	}
	JOINT RightUpLeg
	{
		OFFSET -0.067670 -0.090522 -0.004320
		CHANNELS 3 Zrotation Yrotation Xrotation
		JOINT RightLeg
		{
			OFFSET -0.038290 -0.382569 -0.008850
			CHANNELS 3 Zrotation Yrotation Xrotation
			JOINT RightFoot
			{
				OFFSET 0.015774 -0.398415 -0.042312
				CHANNELS 3 Zrotation Yrotation Xrotation
				JOINT RightToe
				{
					OFFSET -0.025372 -0.048144 0.123348
					CHANNELS 3 Zrotation Yrotation Xrotation
					End Site
					{
						OFFSET 0.000000 0.000000 0.000000
					}
				}
			}
		}
	}
	JOINT Spine
	{
		OFFSET -0.002533 0.108963 -0.026696
		CHANNELS 3 Zrotation Yrotation Xrotation
		JOINT Spine1
		{
			OFFSET 0.005487 0.135180 0.001092
			CHANNELS 3 Zrotation Yrotation Xrotation
			JOINT Spine2
			{
				OFFSET 0.001457 0.052922 0.025425
				CHANNELS 3 Zrotation Yrotation Xrotation
				JOINT Neck
				{
					OFFSET -0.002778 0.213870 -0.042857
					CHANNELS 3 Zrotation Yrotation Xrotation
					JOINT Head
					{
						OFFSET 0.005152 0.064970 0.051349
						CHANNELS 3 Zrotation Yrotation Xrotation
						End Site
						{
							OFFSET 0.000000 0.000000 0.000000
						}
					}
				}
				JOINT LeftShoulder
				{
					OFFSET 0.078845 0.121749 -0.034090
					CHANNELS 3 Zrotation Yrotation Xrotation
					JOINT LeftArm
					{
						OFFSET 0.090977 0.030469 -0.008868
						CHANNELS 3 Zrotation Yrotation Xrotation
						JOINT LeftForeArm
						{
							OFFSET 0.259612 -0.012772 -0.027456
							CHANNELS 3 Zrotation Yrotation Xrotation
							JOINT LeftHand
							{
								OFFSET 0.249234 0.008986 -0.001171
								CHANNELS 3 Zrotation Yrotation Xrotation
								End Site
								{
									OFFSET 0.000000 0.000000 0.000000
								}
							}
						}
					}
				}
				JOINT RightShoulder
				{
					OFFSET -0.081759 0.118833 -0.038615
					CHANNELS 3 Zrotation Yrotation Xrotation
					JOINT RightArm
					{
						OFFSET -0.096012 0.032551 -0.009143
						CHANNELS 3 Zrotation Yrotation Xrotation
						JOINT RightForeArm
						{
							OFFSET -0.253742 -0.013329 -0.021401
							CHANNELS 3 Zrotation Yrotation Xrotation
							JOINT RightHand
							{
								OFFSET -0.255298 0.007772 -0.005559
								CHANNELS 3 Zrotation Yrotation Xrotation
								End Site
								{
									OFFSET 0.000000 0.000000 0.000000
								}
							}
						}
					}
				}
			}
		}
	}
}
MOTION
Frames: 7
Frame Time: 0.050000
0.000000 0.949949 0.000000 0.096478 2.764335 1.225712 2.215657 -0.023631 0.300591 -2.832505 0.320687 -3.159462 -1.044785 2.368529 9.708589 0.000000 0.000000 0.000000 -1.297357 0.128794 -1.121912 -2.283350 0.234309 -0.306504 -0.895832 -5.958661 10.682527 0.000000 0.000000 0.000000 2.624101 -0.162869 2.047372 -0.352266 0.166215 0.027269 -1.623734 -1.067258 4.584513 1.530657 -0.649033 -5.872537 0.000000 0.000000 0.000000 -20.231214 -1.640942 -1.248222 -52.447210 -2.170237 -5.282850 -10.643942 -24.145977 3.156765 0.000000 0.000000 0.000000 17.888006 -1.154107 -2.118830 55.791054 4.628505 -3.313303 5.092976 25.094496 1.921845 0.000000 0.000000 0.000000 
0.003293 0.948828 0.001676 -0.072779 2.558636 1.616929 1.854825 0.038292 1.050813 -2.283497 0.303484 -4.998002 -0.959997 2.473466 9.662378 0.000000 0.000000 0.000000 -1.968046 0.155772 -1.327595 -1.165599 0.101202 -0.556895 -0.795503 -5.743252 10.535111 0.000000 0.000000 0.000000 3.212793 -0.145252 1.455576 -1.004694 0.459924 0.685158 -1.617686 -1.617393 3.720286 0.511853 0.110043 -6.392902 0.000000 0.000000 0.000000 -19.964691 -0.562122 -1.669725 -52.438128 -1.709355 -5.421897 -11.400763 -24.320243 3.366020 0.000000 0.000000 0.000000 16.892892 -1.822414 -2.526031 57.436608 3.513158 -3.826042 5.755175 26.256555 2.114170 0.000000 0.000000 0.000000 
0.006214 0.948346 0.002793 0.302999 3.003273 1.776892 1.479528 0.033133 0.854083 -2.630126 0.319831 -4.863214 -1.167982 2.110666 9.543738 0.000000 0.000000 0.000000 -2.577627 0.173285 -1.491238 -1.094040 0.108806 -0.261811 -1.055931 -6.148351 10.331937 0.000000 0.000000 0.000000 3.093714 -0.118063 1.081440 -0.898565 0.449725 -0.822431 -2.222206 -2.157294 5.099674 0.031390 0.425228 -6.176488 0.000000 0.000000 0.000000 -20.043345 -1.007311 -1.336978 -52.269911 -2.134315 -5.364644 -10.842072 -23.411239 3.145064 0.000000 0.000000 0.000000 17.860303 -1.668848 -2.567258 56.335642 3.348004 -3.964268 6.090739 26.588583 2.227284 0.000000 0.000000 0.000000 
0.008443 0.948435 0.003729 0.299597 3.112991 1.558850 1.149123 0.063169 1.109722 -2.278832 0.297690 -4.785058 -1.197211 2.020059 9.413559 0.000000 0.000000 0.000000 -2.839964 0.157132 -1.283542 -0.861823 0.093564 -0.052006 -1.083598 -6.203358 10.373310 0.000000 0.000000 0.000000 2.925846 -0.104156 0.968070 -1.298929 0.619547 -0.067335 -1.526296 -3.141556 4.321465 -1.040633 1.095358 -5.133623 0.000000 0.000000 0.000000 -19.991468 0.079392 -1.677486 -52.602312 -1.727134 -5.548337 -10.617164 -23.835447 3.204425 0.000000 0.000000 0.000000 16.993736 -1.419971 -2.590678 56.587097 3.363436 -3.880348 6.775777 26.446243 2.278051 0.000000 0.000000 0.000000 
0.009945 0.948977 0.004426 0.429141 3.534351 1.546637 0.871560 0.095204 1.411941 -2.151332 0.293785 -5.267392 -1.486296 1.680245 9.692188 0.000000 0.000000 0.000000 -3.118318 0.144808 -1.126223 -0.731494 0.078080 -0.088756 -1.232255 -6.509974 10.605351 0.000000 0.000000 0.000000 2.586015 -0.097872 0.997932 -0.894209 0.439473 -0.486841 -1.958563 -3.201266 4.604614 -1.114437 1.163603 -5.168719 0.000000 0.000000 0.000000 -19.968369 0.082183 -1.736389 -52.084459 -2.097434 -5.346600 -11.118984 -23.567111 3.259030 0.000000 0.000000 0.000000 17.042361 -1.830815 -2.744050 56.460397 3.243363 -3.957342 7.625427 26.441622 2.482696 0.000000 0.000000 0.000000 
0.010934 0.949424 0.004880 0.495889 3.855482 1.756337 0.626216 0.091936 1.279422 -1.916089 0.281344 -5.432485 -1.673927 1.463032 9.861203 0.000000 0.000000 0.000000 -3.212443 0.157647 -1.294240 -0.757601 0.083425 -0.042959 -1.364726 -6.780029 10.800995 0.000000 0.000000 0.000000 2.318593 -0.068217 0.581833 -0.839107 0.415005 -0.541881 -1.883562 -3.566549 4.810576 -1.015594 1.043637 -4.495733 0.000000 0.000000 0.000000 -19.853411 0.548904 -1.917500 -52.068296 -2.255289 -5.304950 -10.759520 -23.613883 3.206636 0.000000 0.000000 0.000000 16.833914 -1.689503 -2.686716 56.414356 3.256094 -3.963355 7.556271 26.139665 2.424271 0.000000 0.000000 0.000000 
0.011476 0.949665 0.005244 0.446659 3.888613 1.690197 0.692037 0.117062 1.617401 -1.991435 0.290808 -5.866929 -1.749734 1.408473 10.029769 0.000000 0.000000 0.000000 -3.185191 0.139882 -1.066555 -0.767144 0.074122 -0.275094 -1.342901 -6.771240 10.952508 0.000000 0.000000 0.000000 2.162677 -0.063462 0.563424 -0.807858 0.403942 -0.647904 -1.884700 -3.588565 4.953197 -0.861573 0.952436 -4.957000 0.000000 0.000000 0.000000 -19.908350 1.072597 -2.205695 -51.876671 -2.186372 -5.326858 -10.763287 -23.338147 3.169618 0.000000 0.000000 0.000000 16.722989 -1.780624 -2.714216 56.631030 3.000564 -4.116574 8.244768 26.067422 2.565847 0.000000 0.000000 0.000000 
